<svg id="visual" viewBox="0 0 960 300" width="960" height="300" xmlns="http://www.w3.org/2000/svg" xmlns:xlink="http://www.w3.org/1999/xlink" version="1.1"><rect x="0" y="0" width="960" height="300" fill="#202731"></rect><path d="M0 105L22.8 101.2C45.7 97.3 91.3 89.7 137 91.8C182.7 94 228.3 106 274 105.3C319.7 104.7 365.3 91.3 411.2 91.3C457 91.3 503 104.7 548.8 106C594.7 107.3 640.3 96.7 686 95.2C731.7 93.7 777.3 101.3 823 101.8C868.7 102.3 914.3 95.7 937.2 92.3L960 89L960 0L937.2 0C914.3 0 868.7 0 823 0C777.3 0 731.7 0 686 0C640.3 0 594.7 0 548.8 0C503 0 457 0 411.2 0C365.3 0 319.7 0 274 0C228.3 0 182.7 0 137 0C91.3 0 45.7 0 22.8 0L0 0Z" fill="#fa7268"></path><path d="M0 74L22.8 73.7C45.7 73.3 91.3 72.7 137 71.7C182.7 70.7 228.3 69.3 274 69.3C319.7 69.3 365.3 70.7 411.2 70.3C457 70 503 68 548.8 71.3C594.7 74.7 640.3 83.3 686 84.3C731.7 85.3 777.3 78.7 823 77C868.7 75.3 914.3 78.7 937.2 80.3L960 82L960 0L937.2 0C914.3 0 868.7 0 823 0C777.3 0 731.7 0 686 0C640.3 0 594.7 0 548.8 0C503 0 457 0 411.2 0C365.3 0 319.7 0 274 0C228.3 0 182.7 0 137 0C91.3 0 45.7 0 22.8 0L0 0Z" fill="#f46557"></path><path d="M0 67L22.8 68.3C45.7 69.7 91.3 72.3 137 69.2C182.7 66 228.3 57 274 51.8C319.7 46.7 365.3 45.3 411.2 50C457 54.7 503 65.3 548.8 71C594.7 76.7 640.3 77.3 686 74.3C731.7 71.3 777.3 64.7 823 64.5C868.7 64.3 914.3 70.7 937.2 73.8L960 77L960 0L937.2 0C914.3 0 868.7 0 823 0C777.3 0 731.7 0 686 0C640.3 0 594.7 0 548.8 0C503 0 457 0 411.2 0C365.3 0 319.7 0 274 0C228.3 0 182.7 0 137 0C91.3 0 45.7 0 22.8 0L0 0Z" fill="#ed5946"></path><path d="M0 38L22.8 37.2C45.7 36.3 91.3 34.7 137 36.7C182.7 38.7 228.3 44.3 274 45C319.7 45.7 365.3 41.3 411.2 38.5C457 35.7 503 34.3 548.8 35C594.7 35.7 640.3 38.3 686 40C731.7 41.7 777.3 42.3 823 45.2C868.7 48 914.3 53 937.2 55.5L960 58L960 0L937.2 0C914.3 0 868.7 0 823 0C777.3 0 731.7 0 686 0C640.3 0 594.7 0 548.8 0C503 0 457 0 411.2 0C365.3 0 319.7 0 274 0C228.3 0 182.7 0 137 0C91.3 0 45.7 0 22.8 0L0 0Z" fill="#e54c34"></path><path d="M0 34L22.8 32.3C45.7 30.7 91.3 27.3 137 25.2C182.7 23 228.3 22 274 21.5C319.7 21 365.3 21 411.2 22.2C457 23.3 503 25.7 548.8 24.8C594.7 24 640.3 20 686 18.3C731.7 16.7 777.3 17.3 823 18.3C868.7 19.3 914.3 20.7 937.2 21.3L960 22L960 0L937.2 0C914.3 0 868.7 0 823 0C777.3 0 731.7 0 686 0C640.3 0 594.7 0 548.8 0C503 0 457 0 411.2 0C365.3 0 319.7 0 274 0C228.3 0 182.7 0 137 0C91.3 0 45.7 0 22.8 0L0 0Z" fill="#dd3f21"></path></svg>