<svg id="visual" viewBox="0 0 900 300" width="900" height="300" xmlns="http://www.w3.org/2000/svg" xmlns:xlink="http://www.w3.org/1999/xlink" version="1.1"><rect x="0" y="0" width="900" height="300" fill="#202731"></rect><path d="M0 204L21.5 205.2C43 206.3 86 208.7 128.8 208.3C171.7 208 214.3 205 257.2 203.8C300 202.7 343 203.3 385.8 199.5C428.7 195.7 471.3 187.3 514.2 182.7C557 178 600 177 642.8 183C685.7 189 728.3 202 771.2 205.2C814 208.3 857 201.7 878.5 198.3L900 195L900 301L878.5 301C857 301 814 301 771.2 301C728.3 301 685.7 301 642.8 301C600 301 557 301 514.2 301C471.3 301 428.7 301 385.8 301C343 301 300 301 257.2 301C214.3 301 171.7 301 128.8 301C86 301 43 301 21.5 301L0 301Z" fill="#fa7268"></path><path d="M0 210L21.5 210.8C43 211.7 86 213.3 128.8 216.7C171.7 220 214.3 225 257.2 228.7C300 232.3 343 234.7 385.8 236.2C428.7 237.7 471.3 238.3 514.2 235.8C557 233.3 600 227.7 642.8 221.5C685.7 215.3 728.3 208.7 771.2 206.5C814 204.3 857 206.7 878.5 207.8L900 209L900 301L878.5 301C857 301 814 301 771.2 301C728.3 301 685.7 301 642.8 301C600 301 557 301 514.2 301C471.3 301 428.7 301 385.8 301C343 301 300 301 257.2 301C214.3 301 171.7 301 128.8 301C86 301 43 301 21.5 301L0 301Z" fill="#f3665b"></path><path d="M0 239L21.5 239.2C43 239.3 86 239.7 128.8 236.5C171.7 233.3 214.3 226.7 257.2 227.5C300 228.3 343 236.7 385.8 239.5C428.7 242.3 471.3 239.7 514.2 241C557 242.3 600 247.7 642.8 249C685.7 250.3 728.3 247.7 771.2 246.8C814 246 857 247 878.5 247.5L900 248L900 301L878.5 301C857 301 814 301 771.2 301C728.3 301 685.7 301 642.8 301C600 301 557 301 514.2 301C471.3 301 428.7 301 385.8 301C343 301 300 301 257.2 301C214.3 301 171.7 301 128.8 301C86 301 43 301 21.5 301L0 301Z" fill="#ec594d"></path><path d="M0 253L21.5 253.3C43 253.7 86 254.3 128.8 253.5C171.7 252.7 214.3 250.3 257.2 249.7C300 249 343 250 385.8 250.8C428.7 251.7 471.3 252.3 514.2 253.3C557 254.3 600 255.7 642.8 254C685.7 252.3 728.3 247.7 771.2 245.7C814 243.7 857 244.3 878.5 244.7L900 245L900 301L878.5 301C857 301 814 301 771.2 301C728.3 301 685.7 301 642.8 301C600 301 557 301 514.2 301C471.3 301 428.7 301 385.8 301C343 301 300 301 257.2 301C214.3 301 171.7 301 128.8 301C86 301 43 301 21.5 301L0 301Z" fill="#e54c3f"></path><path d="M0 265L21.5 265.5C43 266 86 267 128.8 266.5C171.7 266 214.3 264 257.2 264.7C300 265.3 343 268.7 385.8 269.3C428.7 270 471.3 268 514.2 268C557 268 600 270 642.8 272.3C685.7 274.7 728.3 277.3 771.2 278.5C814 279.7 857 279.3 878.5 279.2L900 279L900 301L878.5 301C857 301 814 301 771.2 301C728.3 301 685.7 301 642.8 301C600 301 557 301 514.2 301C471.3 301 428.7 301 385.8 301C343 301 300 301 257.2 301C214.3 301 171.7 301 128.8 301C86 301 43 301 21.5 301L0 301Z" fill="#dd3f31"></path></svg>