<svg id="visual" viewBox="0 0 960 300" width="960" height="300"
    xmlns="http://www.w3.org/2000/svg"
    xmlns:xlink="http://www.w3.org/1999/xlink" version="1.1">
    <rect x="0" y="0" width="960" height="300" fill="#ff0066"></rect>
    <path d="M0 106L22.8 110.5C45.7 115 91.3 124 137 117.7C182.7 111.3 228.3 89.7 274 77.8C319.7 66 365.3 64 411.2 74.2C457 84.3 503 106.7 548.8 104.8C594.7 103 640.3 77 686 65.5C731.7 54 777.3 57 823 58.7C868.7 60.3 914.3 60.7 937.2 60.8L960 61L960 301L937.2 301C914.3 301 868.7 301 823 301C777.3 301 731.7 301 686 301C640.3 301 594.7 301 548.8 301C503 301 457 301 411.2 301C365.3 301 319.7 301 274 301C228.3 301 182.7 301 137 301C91.3 301 45.7 301 22.8 301L0 301Z" fill="#fa7268"></path>
    <path d="M0 179L22.8 172.3C45.7 165.7 91.3 152.3 137 141.7C182.7 131 228.3 123 274 124.3C319.7 125.7 365.3 136.3 411.2 139.2C457 142 503 137 548.8 134.5C594.7 132 640.3 132 686 137C731.7 142 777.3 152 823 148C868.7 144 914.3 126 937.2 117L960 108L960 301L937.2 301C914.3 301 868.7 301 823 301C777.3 301 731.7 301 686 301C640.3 301 594.7 301 548.8 301C503 301 457 301 411.2 301C365.3 301 319.7 301 274 301C228.3 301 182.7 301 137 301C91.3 301 45.7 301 22.8 301L0 301Z" fill="#ef5f67"></path>
    <path d="M0 170L22.8 169.8C45.7 169.7 91.3 169.3 137 170.3C182.7 171.3 228.3 173.7 274 173.3C319.7 173 365.3 170 411.2 172.2C457 174.3 503 181.7 548.8 179.7C594.7 177.7 640.3 166.3 686 160.7C731.7 155 777.3 155 823 160.8C868.7 166.7 914.3 178.3 937.2 184.2L960 190L960 301L937.2 301C914.3 301 868.7 301 823 301C777.3 301 731.7 301 686 301C640.3 301 594.7 301 548.8 301C503 301 457 301 411.2 301C365.3 301 319.7 301 274 301C228.3 301 182.7 301 137 301C91.3 301 45.7 301 22.8 301L0 301Z" fill="#e34c67"></path>
    <path d="M0 226L22.8 220.8C45.7 215.7 91.3 205.3 137 201C182.7 196.7 228.3 198.3 274 199.8C319.7 201.3 365.3 202.7 411.2 206.7C457 210.7 503 217.3 548.8 216.2C594.7 215 640.3 206 686 205.8C731.7 205.7 777.3 214.3 823 219.2C868.7 224 914.3 225 937.2 225.5L960 226L960 301L937.2 301C914.3 301 868.7 301 823 301C777.3 301 731.7 301 686 301C640.3 301 594.7 301 548.8 301C503 301 457 301 411.2 301C365.3 301 319.7 301 274 301C228.3 301 182.7 301 137 301C91.3 301 45.7 301 22.8 301L0 301Z" fill="#d53867"></path>
    <path d="M0 264L22.8 259C45.7 254 91.3 244 137 244.5C182.7 245 228.3 256 274 258C319.7 260 365.3 253 411.2 246.7C457 240.3 503 234.7 548.8 238.5C594.7 242.3 640.3 255.7 686 263C731.7 270.3 777.3 271.7 823 267.7C868.7 263.7 914.3 254.3 937.2 249.7L960 245L960 301L937.2 301C914.3 301 868.7 301 823 301C777.3 301 731.7 301 686 301C640.3 301 594.7 301 548.8 301C503 301 457 301 411.2 301C365.3 301 319.7 301 274 301C228.3 301 182.7 301 137 301C91.3 301 45.7 301 22.8 301L0 301Z" fill="#c62368"></path>
</svg>